<svg xmlns="http://www.w3.org/2000/svg" class="diagram-root" style="background: #f5f6f6" xmlns:xlink="http://www.w3.org/1999/xlink"><style>.diagram-root { font-family: "Helvetica Neue", sans-serif; font-size: 12px; } .t { overflow: visible; } .t-bg { y: 40; fill: #fff;   } .th { fill: #005aa0;   } .tht { fill: #fff; font-size: 14px;  } .tf { fill: #323c46; overflow: visible; } .tf.pk { fill: #005aa0; font-weight: bold; } .tf.fk { font-weight: bold; } .ty { fill: #adb1b5; font-weight: normal; text-anchor: end; } .r { fill: transparent; stroke: #c3c3c3; stroke-width: 1; } .l { stroke: 1; } .i { fill: #c2c7ce; stroke: #c2c7ce; } .i.ix { fill: #afb3b6; stroke: #000; } .fa { fill: transparent; overflow: visible; } .fa .bg.hover { fill: #f7f7f7; } .c { cy: 12; r: 4; stroke: #d2d2dc; fill: #d2d2dc; } .hr { fill: transparent; stroke: #323c46; stroke-opacity: 0.035; stroke-width: 13; } .dc { stroke: #fa5a3c; fill: #fa5a3c; } .x { stroke: white; stroke-width: 1; } .hl .th { fill: #1b9bff; } .hl .tht {  } .fhl .bg { fill: #e7f4ff; } .fhls .bg {  } .r.hl { stroke: #1b9bff; } .dim { opacity: 0.25; }</style><g class="drawing-wrapper" transform="translate(-10 20) scale(1)"><g class="rs"><path class="r" id="h3870720325" d="M 385 380 m -1 0 a 1 1 0 1 0 2 0 a 1 1 0 1 0 -2 0 M 385 380 m -0.5 0 a 0.5 0.5 0 1 0 1 0 a 0.5 0.5 0 1 0 -1 0 M 385 380 L 385 380 L 373 380 M 385 386 m -1 0 a 1 1 0 1 0 2 0 a 1 1 0 1 0 -2 0 M 385 386 m -0.5 0 a 0.5 0.5 0 1 0 1 0 a 0.5 0.5 0 1 0 -1 0 M 385 386 L 385 386 L 378 380 L 385 374 M 385 374 m -1 0 a 1 1 0 1 0 2 0 a 1 1 0 1 0 -2 0 M 385 374 m -0.5 0 a 0.5 0.5 0 1 0 1 0 a 0.5 0.5 0 1 0 -1 0 M 373 380 Q 329.43 380 285.85 327.5 T 198.69 275 M 186.69 275 m -1 0 a 1 1 0 1 0 2 0 a 1 1 0 1 0 -2 0 M 186.69 275 m -0.5 0 a 0.5 0.5 0 1 0 1 0 a 0.5 0.5 0 1 0 -1 0 M 186.69 275 L 186.69 275 L 198.69 275 M 192.69 281 L 192.69 281 L 192.69 269" /><path class="r" id="h4073403157" d="M 385 430 m -1 0 a 1 1 0 1 0 2 0 a 1 1 0 1 0 -2 0 M 385 430 m -0.5 0 a 0.5 0.5 0 1 0 1 0 a 0.5 0.5 0 1 0 -1 0 M 385 430 L 385 430 L 373 430 M 385 436 m -1 0 a 1 1 0 1 0 2 0 a 1 1 0 1 0 -2 0 M 385 436 m -0.5 0 a 0.5 0.5 0 1 0 1 0 a 0.5 0.5 0 1 0 -1 0 M 385 436 L 385 436 L 378 430 L 385 424 M 385 424 m -1 0 a 1 1 0 1 0 2 0 a 1 1 0 1 0 -2 0 M 385 424 m -0.5 0 a 0.5 0.5 0 1 0 1 0 a 0.5 0.5 0 1 0 -1 0 M 373 430 C 323 430 295.4 96 419 96 M 431 96 m -1 0 a 1 1 0 1 0 2 0 a 1 1 0 1 0 -2 0 M 431 96 m -0.5 0 a 0.5 0.5 0 1 0 1 0 a 0.5 0.5 0 1 0 -1 0 M 431 96 L 431 96 L 419 96 M 425 102 L 425 102 L 425 90" /><path class="r" id="h944182674" d="M 608 213 m -1 0 a 1 1 0 1 0 2 0 a 1 1 0 1 0 -2 0 M 608 213 m -0.5 0 a 0.5 0.5 0 1 0 1 0 a 0.5 0.5 0 1 0 -1 0 M 608 213 L 608 213 L 596 213 M 608 219 m -1 0 a 1 1 0 1 0 2 0 a 1 1 0 1 0 -2 0 M 608 219 m -0.5 0 a 0.5 0.5 0 1 0 1 0 a 0.5 0.5 0 1 0 -1 0 M 608 219 L 608 219 L 601 213 L 608 207 M 608 207 m -1 0 a 1 1 0 1 0 2 0 a 1 1 0 1 0 -2 0 M 608 207 m -0.5 0 a 0.5 0.5 0 1 0 1 0 a 0.5 0.5 0 1 0 -1 0 M 596 213 Q 496.68 213 397.35 244 T 198.69 275 M 186.69 275 m -1 0 a 1 1 0 1 0 2 0 a 1 1 0 1 0 -2 0 M 186.69 275 m -0.5 0 a 0.5 0.5 0 1 0 1 0 a 0.5 0.5 0 1 0 -1 0 M 186.69 275 L 186.69 275 L 198.69 275 M 192.69 281 L 192.69 281 L 192.69 269" /><path class="r" id="h3099333637" d="M 608 263 m -1 0 a 1 1 0 1 0 2 0 a 1 1 0 1 0 -2 0 M 608 263 m -0.5 0 a 0.5 0.5 0 1 0 1 0 a 0.5 0.5 0 1 0 -1 0 M 608 263 L 608 263 L 596 263 M 608 269 m -1 0 a 1 1 0 1 0 2 0 a 1 1 0 1 0 -2 0 M 608 269 m -0.5 0 a 0.5 0.5 0 1 0 1 0 a 0.5 0.5 0 1 0 -1 0 M 608 269 L 608 269 L 601 263 L 608 257 M 608 257 m -1 0 a 1 1 0 1 0 2 0 a 1 1 0 1 0 -2 0 M 608 257 m -0.5 0 a 0.5 0.5 0 1 0 1 0 a 0.5 0.5 0 1 0 -1 0 M 596 263 C 546 263 418.2 92 809 92 M 821 92 m -1 0 a 1 1 0 1 0 2 0 a 1 1 0 1 0 -2 0 M 821 92 m -0.5 0 a 0.5 0.5 0 1 0 1 0 a 0.5 0.5 0 1 0 -1 0 M 821 92 L 821 92 L 809 92 M 815 98 L 815 98 L 815 86" /><path class="r" id="h1564304698" d="M 608 313 m -1 0 a 1 1 0 1 0 2 0 a 1 1 0 1 0 -2 0 M 608 313 m -0.5 0 a 0.5 0.5 0 1 0 1 0 a 0.5 0.5 0 1 0 -1 0 M 608 313 L 608 313 L 596 313 M 608 319 m -1 0 a 1 1 0 1 0 2 0 a 1 1 0 1 0 -2 0 M 608 319 m -0.5 0 a 0.5 0.5 0 1 0 1 0 a 0.5 0.5 0 1 0 -1 0 M 608 319 L 608 319 L 601 313 L 608 307 M 608 307 m -1 0 a 1 1 0 1 0 2 0 a 1 1 0 1 0 -2 0 M 608 307 m -0.5 0 a 0.5 0.5 0 1 0 1 0 a 0.5 0.5 0 1 0 -1 0 M 596 313 Q 518.51 313 441.02 208.5 T 286.03 104 M 274.03 104 m -1 0 a 1 1 0 1 0 2 0 a 1 1 0 1 0 -2 0 M 274.03 104 m -0.5 0 a 0.5 0.5 0 1 0 1 0 a 0.5 0.5 0 1 0 -1 0 M 274.03 104 L 274.03 104 L 286.03 104 M 280.03 110 L 280.03 110 L 280.03 98" /></g><g class="hrs" /><g class="ts"><svg class="t" id="h4103274130" x="32" y="193" width="154.69" height="150"><rect class="th" width="154.69" height="40" /><text class="tht" x="13" y="25">Players</text><rect class="t-bg" y="40" width="154.69" height="110" /><text class="tf" x="13" y="61">id<tspan class="ty" x="141.69">serial</tspan></text><text class="tf pk" x="13" y="86">name<tspan class="ty" x="141.69">VARCHAR</tspan></text><path class="i pk" transform="translate(63.01 73) scale(0.65)" d="M 7 14 A 2 2 0 0 1 5 12 A 2 2 0 0 1 7 10 A 2 2 0 0 1 9 12 A 2 2 0 0 1 7 14 M 12.65 10 C 11.83 7.67 9.61 6 7 6 A 6 6 0 0 0 1 12 A 6 6 0 0 0 7 18 C 9.61 18 11.83 16.33 12.65 14 H 17 V 18 H 21 V 14 H 23 V 10 H 12.65 Z" /><text class="tf" x="13" y="111">year_start<tspan class="ty" x="141.69">DATE</tspan></text><text class="tf" x="13" y="136">year_end<tspan class="ty" x="141.69">DATE</tspan></text></svg><svg class="t" id="h4078137127" x="385" y="298" width="142.7" height="225"><rect class="th" width="142.7" height="40" /><text class="tht" x="13" y="25">Player_data</text><rect class="t-bg" y="40" width="142.7" height="185" /><text class="tf" x="13" y="61">id<tspan class="ty" x="129.7">serial</tspan></text><text class="tf fk" x="13" y="86">name<tspan class="ty" x="129.7">VARCHAR</tspan></text><text class="tf" x="13" y="111">birth_date<tspan class="ty" x="129.7">DATE</tspan></text><text class="tf fk" x="13" y="136">college<tspan class="ty" x="129.7">VARCHAR</tspan></text><text class="tf" x="13" y="161">height_feet<tspan class="ty" x="129.7">INT</tspan></text><text class="tf" x="13" y="186">height_inches<tspan class="ty" x="129.7">INT</tspan></text><text class="tf" x="13" y="211">weight<tspan class="ty" x="129.7">INT</tspan></text></svg><svg class="t" id="h1671563024" x="108" y="22" width="166.03" height="100"><rect class="th" width="166.03" height="40" /><text class="tht" x="13" y="25">Positions</text><rect class="t-bg" y="40" width="166.03" height="60" /><text class="tf" x="13" y="61">id<tspan class="ty" x="153.03">serial</tspan></text><text class="tf pk" x="13" y="86">position<tspan class="ty" x="153.03">VARCHAR</tspan></text><path class="i pk" transform="translate(74.35 73) scale(0.65)" d="M 7 14 A 2 2 0 0 1 5 12 A 2 2 0 0 1 7 10 A 2 2 0 0 1 9 12 A 2 2 0 0 1 7 14 M 12.65 10 C 11.83 7.67 9.61 6 7 6 A 6 6 0 0 0 1 12 A 6 6 0 0 0 7 18 C 9.61 18 11.83 16.33 12.65 14 H 17 V 18 H 21 V 14 H 23 V 10 H 12.65 Z" /></svg><svg class="t" id="h2093983882" x="431" y="14" width="162.7" height="100"><rect class="th" width="162.7" height="40" /><text class="tht" x="13" y="25">Colleges</text><rect class="t-bg" y="40" width="162.7" height="60" /><text class="tf" x="13" y="61">id<tspan class="ty" x="149.7">serial</tspan></text><text class="tf pk" x="13" y="86">college<tspan class="ty" x="149.7">VARCHAR</tspan></text><path class="i pk" transform="translate(71.02 73) scale(0.65)" d="M 7 14 A 2 2 0 0 1 5 12 A 2 2 0 0 1 7 10 A 2 2 0 0 1 9 12 A 2 2 0 0 1 7 14 M 12.65 10 C 11.83 7.67 9.61 6 7 6 A 6 6 0 0 0 1 12 A 6 6 0 0 0 7 18 C 9.61 18 11.83 16.33 12.65 14 H 17 V 18 H 21 V 14 H 23 V 10 H 12.65 Z" /></svg><svg class="t" id="h3010508784" x="821" y="10" width="151.35" height="100"><rect class="th" width="151.35" height="40" /><text class="tht" x="13" y="25">Teams</text><rect class="t-bg" y="40" width="151.35" height="60" /><text class="tf" x="13" y="61">id<tspan class="ty" x="138.35">serial</tspan></text><text class="tf pk" x="13" y="86">team<tspan class="ty" x="138.35">VARCHAR</tspan></text><path class="i pk" transform="translate(59.67 73) scale(0.65)" d="M 7 14 A 2 2 0 0 1 5 12 A 2 2 0 0 1 7 10 A 2 2 0 0 1 9 12 A 2 2 0 0 1 7 14 M 12.65 10 C 11.83 7.67 9.61 6 7 6 A 6 6 0 0 0 1 12 A 6 6 0 0 0 7 18 C 9.61 18 11.83 16.33 12.65 14 H 17 V 18 H 21 V 14 H 23 V 10 H 12.65 Z" /></svg><svg class="t" id="h1113842482" x="608" y="131" width="147.36" height="825"><rect class="th" width="147.36" height="40" /><text class="tht" x="13" y="25">SeasonStats</text><rect class="t-bg" y="40" width="147.36" height="785" /><text class="tf" x="13" y="61">id<tspan class="ty" x="134.36">SERIAL</tspan></text><text class="tf fk" x="13" y="86">Player<tspan class="ty" x="134.36">VARCHAR</tspan></text><text class="tf" x="13" y="111">Year<tspan class="ty" x="134.36">DATE</tspan></text><text class="tf fk" x="13" y="136">Team<tspan class="ty" x="134.36">VARCHAR</tspan></text><text class="tf" x="13" y="161">Age<tspan class="ty" x="134.36">INT</tspan></text><text class="tf fk" x="13" y="186">Position<tspan class="ty" x="134.36">VARCHAR</tspan></text><text class="tf" x="13" y="211">G<tspan class="ty" x="134.36">INT</tspan></text><text class="tf" x="13" y="236">GS<tspan class="ty" x="134.36">INT</tspan></text><text class="tf" x="13" y="261">MP<tspan class="ty" x="134.36">INT</tspan></text><text class="tf" x="13" y="286">FG<tspan class="ty" x="134.36">INT</tspan></text><text class="tf" x="13" y="311">FGA<tspan class="ty" x="134.36">INT</tspan></text><text class="tf" x="13" y="336">FG%<tspan class="ty" x="134.36">DECIMAL</tspan></text><text class="tf" x="13" y="361">3P<tspan class="ty" x="134.36">INT</tspan></text><text class="tf" x="13" y="386">3PA<tspan class="ty" x="134.36">INT</tspan></text><text class="tf" x="13" y="411">3P%<tspan class="ty" x="134.36">DECIMAL</tspan></text><text class="tf" x="13" y="436">2P<tspan class="ty" x="134.36">INT</tspan></text><text class="tf" x="13" y="461">2PA<tspan class="ty" x="134.36">INT</tspan></text><text class="tf" x="13" y="486">2P%<tspan class="ty" x="134.36">DECIMAL</tspan></text><text class="tf" x="13" y="511">eFG%<tspan class="ty" x="134.36">DECIMAL</tspan></text><text class="tf" x="13" y="536">FT<tspan class="ty" x="134.36">INT</tspan></text><text class="tf" x="13" y="561">FTA<tspan class="ty" x="134.36">INT</tspan></text><text class="tf" x="13" y="586">FT%<tspan class="ty" x="134.36">DECIMAL</tspan></text><text class="tf" x="13" y="611">ORB<tspan class="ty" x="134.36">INT</tspan></text><text class="tf" x="13" y="636">DRB<tspan class="ty" x="134.36">INT</tspan></text><text class="tf" x="13" y="661">TRB<tspan class="ty" x="134.36">INT</tspan></text><text class="tf" x="13" y="686">AST<tspan class="ty" x="134.36">INT</tspan></text><text class="tf" x="13" y="711">STL<tspan class="ty" x="134.36">INT</tspan></text><text class="tf" x="13" y="736">BLK<tspan class="ty" x="134.36">INT</tspan></text><text class="tf" x="13" y="761">TOV<tspan class="ty" x="134.36">INT</tspan></text><text class="tf" x="13" y="786">PF<tspan class="ty" x="134.36">INT</tspan></text><text class="tf" x="13" y="811">PTS<tspan class="ty" x="134.36">INT</tspan></text></svg></g></g><text class="qdbd-link" y="20" x="10">www.quickdatabasediagrams.com</text></svg>