<svg xmlns="http://www.w3.org/2000/svg" class="diagram-root" style="background: #f5f6f6" xmlns:xlink="http://www.w3.org/1999/xlink"><style>.diagram-root { font-family: "Helvetica Neue", sans-serif; font-size: 12px; } .t { overflow: visible; } .t-bg { y: 40; fill: #fff;   } .th { fill: #005aa0;   } .tht { fill: #fff; font-size: 14px;  } .tf { fill: #323c46; overflow: visible; } .tf.pk { fill: #005aa0; font-weight: bold; } .tf.fk { font-weight: bold; } .ty { fill: #adb1b5; font-weight: normal; text-anchor: end; } .r { fill: transparent; stroke: #c3c3c3; stroke-width: 1; } .l { stroke: 1; } .i { fill: #c2c7ce; stroke: #c2c7ce; } .i.ix { fill: #afb3b6; stroke: #000; } .fa { fill: transparent; overflow: visible; } .fa .bg.hover { fill: #f7f7f7; } .c { cy: 12; r: 4; stroke: #d2d2dc; fill: #d2d2dc; } .hr { fill: transparent; stroke: #323c46; stroke-opacity: 0.035; stroke-width: 13; } .dc { stroke: #fa5a3c; fill: #fa5a3c; } .x { stroke: white; stroke-width: 1; } .hl .th { fill: #1b9bff; } .hl .tht {  } .fhl .bg { fill: #e7f4ff; } .fhls .bg {  } .r.hl { stroke: #1b9bff; } .dim { opacity: 0.25; }</style><g class="drawing-wrapper" transform="translate(-10 20) scale(1)"><g class="rs"><path class="r" id="h3873669120" d="M 385 355 m -1 0 a 1 1 0 1 0 2 0 a 1 1 0 1 0 -2 0 M 385 355 m -0.5 0 a 0.5 0.5 0 1 0 1 0 a 0.5 0.5 0 1 0 -1 0 M 385 355 L 385 355 L 373 355 M 385 361 m -1 0 a 1 1 0 1 0 2 0 a 1 1 0 1 0 -2 0 M 385 361 m -0.5 0 a 0.5 0.5 0 1 0 1 0 a 0.5 0.5 0 1 0 -1 0 M 385 361 L 385 361 L 378 355 L 385 349 M 385 349 m -1 0 a 1 1 0 1 0 2 0 a 1 1 0 1 0 -2 0 M 385 349 m -0.5 0 a 0.5 0.5 0 1 0 1 0 a 0.5 0.5 0 1 0 -1 0 M 373 355 Q 324.43 355 275.85 302.5 T 178.69 250 M 166.69 250 m -1 0 a 1 1 0 1 0 2 0 a 1 1 0 1 0 -2 0 M 166.69 250 m -0.5 0 a 0.5 0.5 0 1 0 1 0 a 0.5 0.5 0 1 0 -1 0 M 166.69 250 L 166.69 250 L 178.69 250 M 172.69 256 L 172.69 256 L 172.69 244" /><path class="r" id="h4073403157" d="M 385 430 m -1 0 a 1 1 0 1 0 2 0 a 1 1 0 1 0 -2 0 M 385 430 m -0.5 0 a 0.5 0.5 0 1 0 1 0 a 0.5 0.5 0 1 0 -1 0 M 385 430 L 385 430 L 373 430 M 385 436 m -1 0 a 1 1 0 1 0 2 0 a 1 1 0 1 0 -2 0 M 385 436 m -0.5 0 a 0.5 0.5 0 1 0 1 0 a 0.5 0.5 0 1 0 -1 0 M 385 436 L 385 436 L 378 430 L 385 424 M 385 424 m -1 0 a 1 1 0 1 0 2 0 a 1 1 0 1 0 -2 0 M 385 424 m -0.5 0 a 0.5 0.5 0 1 0 1 0 a 0.5 0.5 0 1 0 -1 0 M 373 430 C 323 430 295.4 96 419 96 M 431 96 m -1 0 a 1 1 0 1 0 2 0 a 1 1 0 1 0 -2 0 M 431 96 m -0.5 0 a 0.5 0.5 0 1 0 1 0 a 0.5 0.5 0 1 0 -1 0 M 431 96 L 431 96 L 419 96 M 425 102 L 425 102 L 425 90" /><path class="r" id="h944182674" d="M 633 201 m -1 0 a 1 1 0 1 0 2 0 a 1 1 0 1 0 -2 0 M 633 201 m -0.5 0 a 0.5 0.5 0 1 0 1 0 a 0.5 0.5 0 1 0 -1 0 M 633 201 L 633 201 L 621 201 M 633 207 m -1 0 a 1 1 0 1 0 2 0 a 1 1 0 1 0 -2 0 M 633 207 m -0.5 0 a 0.5 0.5 0 1 0 1 0 a 0.5 0.5 0 1 0 -1 0 M 633 207 L 633 207 L 626 201 L 633 195 M 633 195 m -1 0 a 1 1 0 1 0 2 0 a 1 1 0 1 0 -2 0 M 633 195 m -0.5 0 a 0.5 0.5 0 1 0 1 0 a 0.5 0.5 0 1 0 -1 0 M 621 201 Q 510.43 201 399.85 238 T 178.69 275 M 166.69 275 m -1 0 a 1 1 0 1 0 2 0 a 1 1 0 1 0 -2 0 M 166.69 275 m -0.5 0 a 0.5 0.5 0 1 0 1 0 a 0.5 0.5 0 1 0 -1 0 M 166.69 275 L 166.69 275 L 178.69 275 M 172.69 281 L 172.69 281 L 172.69 269" /><path class="r" id="h3099333637" d="M 633 251 m -1 0 a 1 1 0 1 0 2 0 a 1 1 0 1 0 -2 0 M 633 251 m -0.5 0 a 0.5 0.5 0 1 0 1 0 a 0.5 0.5 0 1 0 -1 0 M 633 251 L 633 251 L 621 251 M 633 257 m -1 0 a 1 1 0 1 0 2 0 a 1 1 0 1 0 -2 0 M 633 257 m -0.5 0 a 0.5 0.5 0 1 0 1 0 a 0.5 0.5 0 1 0 -1 0 M 633 257 L 633 257 L 626 251 L 633 245 M 633 245 m -1 0 a 1 1 0 1 0 2 0 a 1 1 0 1 0 -2 0 M 633 245 m -0.5 0 a 0.5 0.5 0 1 0 1 0 a 0.5 0.5 0 1 0 -1 0 M 621 251 C 571 251 458.2 92 809 92 M 821 92 m -1 0 a 1 1 0 1 0 2 0 a 1 1 0 1 0 -2 0 M 821 92 m -0.5 0 a 0.5 0.5 0 1 0 1 0 a 0.5 0.5 0 1 0 -1 0 M 821 92 L 821 92 L 809 92 M 815 98 L 815 98 L 815 86" /><path class="r" id="h1564304698" d="M 633 301 m -1 0 a 1 1 0 1 0 2 0 a 1 1 0 1 0 -2 0 M 633 301 m -0.5 0 a 0.5 0.5 0 1 0 1 0 a 0.5 0.5 0 1 0 -1 0 M 633 301 L 633 301 L 621 301 M 633 307 m -1 0 a 1 1 0 1 0 2 0 a 1 1 0 1 0 -2 0 M 633 307 m -0.5 0 a 0.5 0.5 0 1 0 1 0 a 0.5 0.5 0 1 0 -1 0 M 633 307 L 633 307 L 626 301 L 633 295 M 633 295 m -1 0 a 1 1 0 1 0 2 0 a 1 1 0 1 0 -2 0 M 633 295 m -0.5 0 a 0.5 0.5 0 1 0 1 0 a 0.5 0.5 0 1 0 -1 0 M 621 301 Q 537.26 301 453.52 202.5 T 286.03 104 M 274.03 104 m -1 0 a 1 1 0 1 0 2 0 a 1 1 0 1 0 -2 0 M 274.03 104 m -0.5 0 a 0.5 0.5 0 1 0 1 0 a 0.5 0.5 0 1 0 -1 0 M 274.03 104 L 274.03 104 L 286.03 104 M 280.03 110 L 280.03 110 L 280.03 98" /></g><g class="hrs" /><g class="ts"><svg class="t" id="h4103274130" x="32" y="193" width="134.69" height="125"><rect class="th" width="134.69" height="40" /><text class="tht" x="13" y="25">Players</text><rect class="t-bg" y="40" width="134.69" height="85" /><text class="tf pk" x="13" y="61">id<tspan class="ty" x="121.69">serial</tspan></text><path class="i pk" transform="translate(73.01 48) scale(0.65)" d="M 7 14 A 2 2 0 0 1 5 12 A 2 2 0 0 1 7 10 A 2 2 0 0 1 9 12 A 2 2 0 0 1 7 14 M 12.65 10 C 11.83 7.67 9.61 6 7 6 A 6 6 0 0 0 1 12 A 6 6 0 0 0 7 18 C 9.61 18 11.83 16.33 12.65 14 H 17 V 18 H 21 V 14 H 23 V 10 H 12.65 Z" /><text class="tf fk" x="13" y="86">name<tspan class="ty" x="121.69">VARCHAR</tspan></text><text class="tf" x="13" y="111">birth_date<tspan class="ty" x="121.69">DATE</tspan></text></svg><svg class="t" id="h4078137127" x="385" y="298" width="142.7" height="225"><rect class="th" width="142.7" height="40" /><text class="tht" x="13" y="25">Player_data</text><rect class="t-bg" y="40" width="142.7" height="185" /><text class="tf fk" x="13" y="61">id<tspan class="ty" x="129.7">INT</tspan></text><text class="tf" x="13" y="86">year_start<tspan class="ty" x="129.7">DATE</tspan></text><text class="tf" x="13" y="111">year_end<tspan class="ty" x="129.7">DATE</tspan></text><text class="tf fk" x="13" y="136">college<tspan class="ty" x="129.7">VARCHAR</tspan></text><text class="tf" x="13" y="161">height_feet<tspan class="ty" x="129.7">INT</tspan></text><text class="tf" x="13" y="186">height_inches<tspan class="ty" x="129.7">INT</tspan></text><text class="tf" x="13" y="211">weight<tspan class="ty" x="129.7">INT</tspan></text></svg><svg class="t" id="h1671563024" x="108" y="22" width="166.03" height="100"><rect class="th" width="166.03" height="40" /><text class="tht" x="13" y="25">Positions</text><rect class="t-bg" y="40" width="166.03" height="60" /><text class="tf" x="13" y="61">id<tspan class="ty" x="153.03">serial</tspan></text><text class="tf pk" x="13" y="86">position<tspan class="ty" x="153.03">VARCHAR</tspan></text><path class="i pk" transform="translate(74.35 73) scale(0.65)" d="M 7 14 A 2 2 0 0 1 5 12 A 2 2 0 0 1 7 10 A 2 2 0 0 1 9 12 A 2 2 0 0 1 7 14 M 12.65 10 C 11.83 7.67 9.61 6 7 6 A 6 6 0 0 0 1 12 A 6 6 0 0 0 7 18 C 9.61 18 11.83 16.33 12.65 14 H 17 V 18 H 21 V 14 H 23 V 10 H 12.65 Z" /></svg><svg class="t" id="h2093983882" x="431" y="14" width="162.7" height="100"><rect class="th" width="162.7" height="40" /><text class="tht" x="13" y="25">Colleges</text><rect class="t-bg" y="40" width="162.7" height="60" /><text class="tf" x="13" y="61">id<tspan class="ty" x="149.7">serial</tspan></text><text class="tf pk" x="13" y="86">college<tspan class="ty" x="149.7">VARCHAR</tspan></text><path class="i pk" transform="translate(71.02 73) scale(0.65)" d="M 7 14 A 2 2 0 0 1 5 12 A 2 2 0 0 1 7 10 A 2 2 0 0 1 9 12 A 2 2 0 0 1 7 14 M 12.65 10 C 11.83 7.67 9.61 6 7 6 A 6 6 0 0 0 1 12 A 6 6 0 0 0 7 18 C 9.61 18 11.83 16.33 12.65 14 H 17 V 18 H 21 V 14 H 23 V 10 H 12.65 Z" /></svg><svg class="t" id="h3010508784" x="821" y="10" width="151.35" height="100"><rect class="th" width="151.35" height="40" /><text class="tht" x="13" y="25">Teams</text><rect class="t-bg" y="40" width="151.35" height="60" /><text class="tf" x="13" y="61">id<tspan class="ty" x="138.35">serial</tspan></text><text class="tf pk" x="13" y="86">team<tspan class="ty" x="138.35">VARCHAR</tspan></text><path class="i pk" transform="translate(59.67 73) scale(0.65)" d="M 7 14 A 2 2 0 0 1 5 12 A 2 2 0 0 1 7 10 A 2 2 0 0 1 9 12 A 2 2 0 0 1 7 14 M 12.65 10 C 11.83 7.67 9.61 6 7 6 A 6 6 0 0 0 1 12 A 6 6 0 0 0 7 18 C 9.61 18 11.83 16.33 12.65 14 H 17 V 18 H 21 V 14 H 23 V 10 H 12.65 Z" /></svg><svg class="t" id="h1113842482" x="633" y="119" width="147.36" height="850"><rect class="th" width="147.36" height="40" /><text class="tht" x="13" y="25">SeasonStats</text><rect class="t-bg" y="40" width="147.36" height="810" /><text class="tf" x="13" y="61">id<tspan class="ty" x="134.36">SERIAL</tspan></text><text class="tf fk" x="13" y="86">Player<tspan class="ty" x="134.36">VARCHAR</tspan></text><text class="tf" x="13" y="111">Year<tspan class="ty" x="134.36">INT</tspan></text><text class="tf fk" x="13" y="136">Team<tspan class="ty" x="134.36">VARCHAR</tspan></text><text class="tf" x="13" y="161">Age<tspan class="ty" x="134.36">INT</tspan></text><text class="tf fk" x="13" y="186">Position<tspan class="ty" x="134.36">VARCHAR</tspan></text><text class="tf" x="13" y="211">Tm<tspan class="ty" x="134.36">INT</tspan></text><text class="tf" x="13" y="236">G<tspan class="ty" x="134.36">INT</tspan></text><text class="tf" x="13" y="261">GS<tspan class="ty" x="134.36">INT</tspan></text><text class="tf" x="13" y="286">MP<tspan class="ty" x="134.36">INT</tspan></text><text class="tf" x="13" y="311">FG<tspan class="ty" x="134.36">INT</tspan></text><text class="tf" x="13" y="336">FGA<tspan class="ty" x="134.36">INT</tspan></text><text class="tf" x="13" y="361">FG%<tspan class="ty" x="134.36">DECIMAL</tspan></text><text class="tf" x="13" y="386">3P<tspan class="ty" x="134.36">INT</tspan></text><text class="tf" x="13" y="411">3PA<tspan class="ty" x="134.36">INT</tspan></text><text class="tf" x="13" y="436">3P%<tspan class="ty" x="134.36">DECIMAL</tspan></text><text class="tf" x="13" y="461">2P<tspan class="ty" x="134.36">INT</tspan></text><text class="tf" x="13" y="486">2PA<tspan class="ty" x="134.36">INT</tspan></text><text class="tf" x="13" y="511">2P%<tspan class="ty" x="134.36">DECIMAL</tspan></text><text class="tf" x="13" y="536">eFG%<tspan class="ty" x="134.36">DECIMAL</tspan></text><text class="tf" x="13" y="561">FT<tspan class="ty" x="134.36">INT</tspan></text><text class="tf" x="13" y="586">FTA<tspan class="ty" x="134.36">INT</tspan></text><text class="tf" x="13" y="611">FT%<tspan class="ty" x="134.36">DECIMAL</tspan></text><text class="tf" x="13" y="636">ORB<tspan class="ty" x="134.36">INT</tspan></text><text class="tf" x="13" y="661">DRB<tspan class="ty" x="134.36">INT</tspan></text><text class="tf" x="13" y="686">TRB<tspan class="ty" x="134.36">INT</tspan></text><text class="tf" x="13" y="711">AST<tspan class="ty" x="134.36">INT</tspan></text><text class="tf" x="13" y="736">STL<tspan class="ty" x="134.36">INT</tspan></text><text class="tf" x="13" y="761">BLK<tspan class="ty" x="134.36">INT</tspan></text><text class="tf" x="13" y="786">TOV<tspan class="ty" x="134.36">INT</tspan></text><text class="tf" x="13" y="811">PF<tspan class="ty" x="134.36">INT</tspan></text><text class="tf" x="13" y="836">PTS<tspan class="ty" x="134.36">INT</tspan></text></svg></g></g><text class="qdbd-link" y="20" x="10">www.quickdatabasediagrams.com</text></svg>